<?xml version="1.0" standalone="no"?>
<!DOCTYPE svg PUBLIC "-//W3C//DTD SVG 20010904//EN"
 "http://www.w3.org/TR/2001/REC-SVG-20010904/DTD/svg10.dtd">
<svg version="1.0" xmlns="http://www.w3.org/2000/svg"
 width="512.000000pt" height="512.000000pt" viewBox="0 0 512.000000 512.000000"
 preserveAspectRatio="xMidYMid meet">
<metadata>
Created by potrace 1.14, written by Peter Selinger 2001-2017
</metadata>
<g transform="translate(0.000000,512.000000) scale(0.100000,-0.100000)"
fill="#000000" stroke="none">
<path d="M523 4785 c-185 -50 -331 -209 -357 -390 -3 -22 -5 -659 -6 -1416 l0
-1377 -43 -10 c-47 -12 -90 -51 -107 -97 -15 -41 -11 -459 5 -530 31 -134 83
-247 154 -335 131 -164 298 -263 505 -299 40 -7 661 -11 1895 -11 1969 1 1882
-1 2028 50 152 53 318 191 405 336 54 90 84 167 103 269 17 88 20 479 5 521
-17 45 -61 84 -107 96 l-43 10 -1 1382 c0 759 -3 1395 -5 1411 -28 181 -176
344 -355 389 -59 14 -253 16 -2044 15 -1672 0 -1988 -3 -2032 -14z m4043 -331
c15 -11 37 -33 48 -48 21 -27 21 -31 24 -1417 l2 -1389 -2080 0 -2080 0 0
1375 c0 1143 2 1381 14 1408 17 40 55 75 92 87 16 5 906 8 1991 7 l1962 -2 27
-21z m-2645 -3266 c0 -118 13 -154 67 -195 l43 -32 518 -1 c349 0 528 3 547
11 76 28 104 86 104 215 l0 94 800 0 801 0 -2 -112 c-1 -62 -8 -137 -15 -165
-43 -166 -179 -303 -345 -347 -81 -22 -3677 -22 -3758 0 -168 45 -301 179
-345 345 -7 30 -14 105 -15 167 l-2 112 801 0 800 0 1 -92z"/>
<path d="M2830 4150 c-19 -5 -47 -11 -63 -14 -47 -11 -119 -42 -187 -81 -51
-30 -160 -132 -513 -484 -246 -245 -466 -471 -488 -502 -133 -181 -171 -437
-98 -652 71 -211 233 -377 437 -451 96 -34 110 -37 229 -41 178 -6 320 41 463
151 90 69 913 903 952 964 79 125 110 229 113 380 2 74 -3 128 -16 183 -61
254 -263 463 -515 533 -65 18 -258 26 -314 14z m269 -339 c169 -68 264 -215
257 -397 -3 -71 -8 -92 -40 -156 -31 -62 -61 -97 -196 -233 l-160 -160 -287
288 -288 288 165 163 c97 96 184 173 210 186 101 52 239 61 339 21z m-649
-886 l285 -286 -165 -163 c-208 -206 -267 -238 -419 -231 -149 6 -263 74 -336
199 -36 61 -46 100 -50 183 -4 83 12 154 51 221 23 40 328 362 344 362 3 0
133 -128 290 -285z"/>
</g>
</svg>
